<svg width="40" height="40" viewBox="0 0 40 40" fill="none" xmlns="http://www.w3.org/2000/svg">
<path d="M5 33H4V36H35.5V33H35M5 33C4.29111 25.7226 5.42552 20.0183 5 17.5H6.5C6.5 17.5 7.10589 17.702 8 17.9697M5 33H35M35 33C35.4528 29.6033 34 28.5 32.9375 27.9417C31.875 27.3834 29.4375 27 29.4375 27C29.4375 27 27.5 26.1891 26 25.5C24.5 24.8109 24.2077 24.6895 23 23.9104C21.7878 23.1285 19 22.5 17 17.5C17 17.5 15.527 18.6784 13.7117 19M8 17.9697C9.09544 18.2978 10.6235 18.7247 12 19C12.581 19.1162 13.162 19.0974 13.7117 19M8 17.9697V29.7579C8 30.1986 8.28846 30.5905 8.71432 30.7038C10.9262 31.2925 12.4374 31.2634 14.6381 30.7257C15.1312 30.6052 15.4412 30.1218 15.3632 29.6203L13.7117 19" stroke="currentColor"/>
</svg>
