<svg width="40" height="40" viewBox="0 0 40 40" fill="none" xmlns="http://www.w3.org/2000/svg">
<path d="M9.3125 19.7969V12.375H14.6562M9.3125 19.7969V27.2188H14.6562M9.3125 19.7969H30.6875M30.6875 19.7969V12.375H25.3438M30.6875 19.7969V27.2188H25.3438M25.3438 12.375V27.2188M25.3438 12.375H20.5M25.3438 27.2188H20.5M14.6562 12.375V27.2188M14.6562 12.375H19.5M14.6562 27.2188H19.5M19.5 12.375H20H20.5M19.5 12.375V27.2188M19.5 27.2188H20H20.5M20.5 12.375V27.2188M31 15.5V17M31 23V24.5M9 23V24.5M9 15.5V17" stroke="currentColor" stroke-linecap="square"/>
</svg>
