<svg width="40" height="40" viewBox="0 0 40 40" fill="none" xmlns="http://www.w3.org/2000/svg">
<path d="M21 3H17.7313M13.6299 3C11.9491 3 10.7254 4.87455 10.1283 6.03684C9.82802 6.62127 9.69235 7.26994 9.64151 7.92502L8 29.0769L11.6608 30L12.5352 16.125L11.6608 37.5L20.533 39L20.0661 19.5M17.7313 3L20.0661 9V19.5M17.7313 3C17.42 2.16667 18.385 0.5 21 0.5C21 0.5 16.3304 0.5 15.3965 0.5C14.4626 0.5 12.3146 2.3 14.9295 5.5C18.1982 9.5 15.63 5 17.2643 5.5C18.5718 5.9 17.8091 8.33333 17.2643 9.5L20.0661 19.5M17.2643 28.5L14.4626 28" stroke="currentColor"/>
<path d="M21 3H24.2687M28.3701 3C30.0509 3 31.2746 4.87455 31.8717 6.03684C32.172 6.62127 32.3076 7.26994 32.3585 7.92502L34 29.0769L30.3392 30L29.4648 16.125L30.3392 37.5L21.467 39L21.9339 19.5M24.2687 3L21.9339 9V19.5M24.2687 3C24.58 2.16667 23.615 0.5 21 0.5C21 0.5 25.6696 0.5 26.6035 0.5C27.5374 0.5 29.6854 2.3 27.0705 5.5C23.8018 9.5 26.37 5 24.7357 5.5C23.4282 5.9 24.1909 8.33333 24.7357 9.5L21.9339 19.5M24.7357 28.5L27.5374 28" stroke="currentColor"/>
</svg>
