<svg width="40" height="40" viewBox="0 0 40 40" fill="none" xmlns="http://www.w3.org/2000/svg">
<path d="M10.4669 3L7.89997 5.18283C6.64996 6.24579 5.81309 7.7141 5.53552 9.3313L1 35.7564L5.96516 36.6538L9.78596 15.7604L10.4669 38H20M15 3L11.5 6C11.5 6 10 5 10.5 3C11 1 16 0.5 16 0.5M15 3C14.9033 1.70094 15.1419 1.16574 16 0.5M15 3H20M16 0.5H20" stroke="currentColor"/>
<path d="M20.426 13.348C22.5887 10.1762 23.2374 6.69196 24.926 2.97758C25.7593 4.05783 28.426 9.45907 28.426 9.45907C28.026 12.0517 21.5926 14.8603 18.426 15.9405M20.426 13.348C18.2632 10.1762 16.6145 7.34011 14.926 3.62573L12.426 9.45907C14.6268 13.0719 16.1236 14.0593 18.926 15.2924M20.426 13.348L18.926 15.2924M18.426 15.9405L18.926 15.2924M18.426 15.9405V37.9776" stroke="currentColor"/>
<path d="M3 36L4 31" stroke="currentColor"/>
<path d="M29.5331 3L32.1 5.18283C33.35 6.24579 34.1869 7.7141 34.4645 9.3313L39 35.7564L34.0348 36.6538L30.214 15.7604L29.5331 38H20M25 3L28.5 6C28.5 6 30 5 29.5 3C29 1 24 0.5 24 0.5M25 3C25.0967 1.70094 24.8581 1.16574 24 0.5M25 3H20M24 0.5H20" stroke="currentColor"/>
<path d="M37 36L36 31" stroke="currentColor"/>
</svg>
