<svg width="40" height="40" viewBox="0 0 40 40" fill="none" xmlns="http://www.w3.org/2000/svg">
<path d="M25.3215 32.2048V32.2048C24.6507 31.6392 24.4475 30.6867 24.8285 29.8946L25.0725 29.3875L24.3065 24.459C24.2746 24.254 24.332 24.0453 24.4639 23.8863V23.8863C25.2509 22.9377 26.7815 23.3672 26.9715 24.5899L27.2999 26.7028L30.4756 22.8751C31.5335 21.6 33.418 21.4321 34.6846 22.5002L36.0335 23.6375C38.2 25.4643 38.4311 28.7367 36.5428 30.8487L32.0229 35.904C31.4676 36.525 30.5238 36.5914 29.8868 36.0542V36.0542M25.3215 32.2048L24.0508 33.7364C23.6981 34.1614 23.7545 34.7946 24.1767 35.1506L24.5536 35.4683M25.3215 32.2048L26.4628 33.1671M29.8868 36.0542L28.6161 37.5858C28.2634 38.0108 27.6353 38.0668 27.213 37.7108L26.8362 37.393M29.8868 36.0542L28.7454 35.0919M27.6041 34.1295L25.6949 36.4307M27.6041 34.1295L26.4628 33.1671M27.6041 34.1295L28.7454 35.0919M25.6949 36.4307L24.5536 35.4683M25.6949 36.4307L26.8362 37.393M26.4628 33.1671L24.5536 35.4683M28.7454 35.0919L26.8362 37.393" stroke="currentColor"/>
<path d="M7.43958 10.5H6.95166C6.39937 10.5 5.95166 10.9477 5.95166 11.5V13C5.95166 13.5523 6.39938 14 6.95166 14H7.68756M7.43958 10.5L7.34701 9.4735C7.12282 6.98737 8.92663 4.77787 11.4073 4.5V4.5M7.43958 10.5H7.68756M18.351 10.5H18.8389C19.3912 10.5 19.8389 10.9477 19.8389 11.5L19.8389 13C19.8389 13.5523 19.3912 14 18.8389 14H18.103M18.351 10.5L18.4435 9.47352C18.6677 6.98737 16.8639 4.77787 14.3832 4.5V4.5M18.351 10.5H18.103M11.4073 4.5L11.33 4.30505C10.8913 3.19953 11.7059 2 12.8953 2V2C14.0846 2 14.8992 3.19953 14.4605 4.30505L14.3832 4.5M11.4073 4.5H14.3832M12.8953 10.5L12.8953 14M12.8953 10.5H11.1594M12.8953 10.5H14.6312M12.8953 14H11.1594M12.8953 14H14.6312M16.3671 14V10.5M16.3671 14H14.6312M16.3671 14H18.103M16.3671 10.5H14.6312M16.3671 10.5H18.103M9.42346 14V10.5M9.42346 14H11.1594M9.42346 14H7.68756M9.42346 10.5H11.1594M9.42346 10.5H7.68756M11.1594 14L11.1594 10.5M7.68756 14V10.5M14.6312 14L14.6312 10.5M18.103 14V10.5" stroke="currentColor"/>
<path d="M4.46375 19.5H3.98389C2.87932 19.5 1.98389 20.3954 1.98389 21.5V22.5C1.98389 23.6046 2.87932 24.5 3.98389 24.5H4.46375M4.46375 19.5V19C4.46375 18.4477 4.91146 18 5.46375 18H8.42348C8.97576 18 9.42347 18.4477 9.42347 19V19.5M4.46375 19.5V24.5M9.42347 19.5H16.847C17.9515 19.5 18.847 20.3954 18.847 21.5V22.5C18.847 23.6046 17.9515 24.5 16.8469 24.5H9.42347M9.42347 19.5V24.5M4.46375 34.5V24.5M4.46375 34.5V38M4.46375 34.5H5.70368M9.42347 34.5V24.5M9.42347 34.5V38M9.42347 34.5H8.18354M6.94361 34.5V38M6.94361 34.5H8.18354M6.94361 34.5H5.70368M8.18354 34.5V38M5.70368 34.5V38" stroke="currentColor"/>
</svg>
