<svg width="40" height="40" viewBox="0 0 40 40" fill="none" xmlns="http://www.w3.org/2000/svg">
  <path d="M15.1741 4H13.2149C11.5533 4 9.94595 4.59102 8.68018 5.66739L8.06242 6.19271C6.81948 7.24967 5.98479 8.70761 5.70259 10.3146L1.17407 36.1026L6.13923 37L9.96004 16.7604V39H20.1741 M15.1741 4C16.5512 4.64265 17.8992 5.24958 19.5816 5.80932C19.9661 5.93725 20.3821 5.93725 20.7666 5.80932C22.449 5.24958 23.797 4.64265 25.1741 4 M15.1741 3.99999C12.2187 2.5056 14.5 1.5 15.1741 0.999994C15.8483 0.499989 18.0024 0.492984 20.0001 0.499995C21.9977 0.507006 24.3482 0.499989 25.1741 0.999994C26 1.5 28.5 2.49999 25.1741 3.99999 M1.52116 36.1954L1.30141 37.2189C1.18382 37.7665 1.53889 38.3039 2.08874 38.4105L4.33783 38.8467C4.87238 38.9503 5.39162 38.6073 5.50593 38.0749L5.73407 37.0124 M25.1741 4H27.1333C28.7948 4 30.4022 4.59102 31.668 5.66739L32.2857 6.19271C33.5287 7.24967 34.3634 8.70761 34.6456 10.3146L39.1741 36.1026L34.2089 37L30.3881 16.7604V39H20.1741 M38.827 36.1954L39.0467 37.2189C39.1643 37.7665 38.8093 38.3039 38.2594 38.4105L36.0103 38.8467C35.4758 38.9503 34.9565 38.6073 34.8422 38.0749L34.6141 37.0124 M20 39V6 M26 28C25.8333 29.1667 26.2 32.3 29 35.5 M14 28C14.1667 29.1667 13.8 32.3 11 35.5 M16 1C18.2497 2.70389 18.8504 3.89818 20 6 M24 1C21.7503 2.70389 21.1496 3.89818 20 6 M18 5.5V10 M22.5 5.5V9.5" stroke="currentColor" />
</svg>
