<svg width="40" height="40" viewBox="0 0 40 40" fill="none" xmlns="http://www.w3.org/2000/svg">
<circle cx="32" cy="9" r="7.5" stroke="currentColor"/>
<path d="M29.3075 7.18182L30.0085 8.51669L30.7269 7.18182H31.8132L30.707 9.09091L31.843 11H30.7617L30.0085 9.68004L29.2678 11H28.174L29.3075 9.09091L28.2138 7.18182H29.3075ZM32.4322 11V10.2244L34.2443 8.54652C34.3984 8.39737 34.5277 8.26314 34.6321 8.14382C34.7382 8.0245 34.8185 7.90767 34.8732 7.79332C34.9279 7.67732 34.9553 7.5522 34.9553 7.41797C34.9553 7.26882 34.9213 7.14039 34.8533 7.03267C34.7854 6.9233 34.6926 6.83961 34.5749 6.7816C34.4573 6.72195 34.3239 6.69212 34.1747 6.69212C34.0189 6.69212 33.883 6.7236 33.767 6.78658C33.651 6.84955 33.5616 6.93987 33.4986 7.05753C33.4356 7.17519 33.4041 7.31522 33.4041 7.47763H32.3825C32.3825 7.14453 32.4579 6.85535 32.6087 6.61009C32.7595 6.36482 32.9708 6.17507 33.2425 6.04084C33.5143 5.9066 33.8275 5.83949 34.1822 5.83949C34.5468 5.83949 34.8641 5.90412 35.1342 6.03338C35.406 6.16098 35.6173 6.3383 35.7681 6.56534C35.9189 6.79238 35.9943 7.05256 35.9943 7.34588C35.9943 7.53812 35.9562 7.72786 35.88 7.91513C35.8054 8.10239 35.672 8.31037 35.4798 8.53906C35.2875 8.7661 35.0166 9.03871 34.6669 9.35689L33.9237 10.0852V10.12H36.0614V11H32.4322Z" fill="currentColor"/>
<path d="M20 1H13V4H20" stroke="currentColor"/>
<path d="M12.8889 4L12 11.3134V39H16.4444L20 11.3134" stroke="currentColor"/>
<path d="M15 8L12 11" stroke="currentColor"/>
<path fill-rule="evenodd" clip-rule="evenodd" d="M27.5 15.6153V38.5H23.9955L20.4959 11.2497L19.5041 11.3771L23.0596 39.0637L23.1157 39.5H23.5556H28H28.5V39V16.1958C28.1518 16.0261 27.8177 15.8318 27.5 15.6153Z" fill="currentColor"/>
<path fill-rule="evenodd" clip-rule="evenodd" d="M27 0.5H27.5V1V2.38468C27.1452 2.62653 26.8108 2.89618 26.5 3.1905V1.5H20V0.5H27ZM26.1905 3.5H20V4.5H25.3847C25.6265 4.14516 25.8962 3.81078 26.1905 3.5Z" fill="currentColor"/>
<path fill-rule="evenodd" clip-rule="evenodd" d="M24.075 7.89999L23.7 8.4L24.0083 8.63126C24.0195 8.38442 24.0419 8.1405 24.075 7.89999Z" fill="currentColor"/>
</svg>
