<svg width="40" height="40" viewBox="0 0 40 40" fill="none" xmlns="http://www.w3.org/2000/svg">
<path d="M20 4H13.0408C11.3792 4 9.77188 4.59102 8.50611 5.66739L7.89997 6.18283C6.64996 7.24579 5.81309 8.7141 5.53552 10.3313L1 36.7564L5.96516 37.6538L9.78596 16.7604V39H20" stroke="currentColor"/>
<path d="M20 4H27.3269C28.7511 4 30.1288 4.50659 31.2138 5.42919L32.1 6.18283C33.35 7.24579 34.1869 8.7141 34.4645 10.3313L39 36.7564L34.0348 37.6538L30.214 16.7604V39H20" stroke="currentColor"/>
<path d="M15 4C16.2951 6.19774 17.5668 8.29105 19.0649 10.2512C19.7948 11.2062 21.2052 11.2062 21.9351 10.2512C23.4332 8.29106 24.7049 6.19774 26 4" stroke="currentColor"/>
</svg>
