<svg width="40" height="40" viewBox="0 0 40 40" fill="none" xmlns="http://www.w3.org/2000/svg">
<path d="M20 1H13.5L13 4H20" stroke="currentColor"/>
<path d="M27.1112 4L28.0001 11.3134C29.0322 23.7451 29.1032 31.0962 31.9445 38C29.4497 39.652 26.7475 39.4781 23.5 38L20.0001 11.3134" stroke="currentColor"/>
<path d="M27.1112 4L28.0001 11.3134C29.0322 23.7451 29.1032 31.0962 31.9445 38C29.4497 39.652 26.7475 39.4781 23.5 38L20.0001 11.3134" stroke="currentColor"/>
<path d="M12.8333 4L11.9444 11.3134C10.9122 23.7451 10.8413 31.0962 8 38C10.4948 39.652 13.197 39.4781 16.4444 38L19.9444 11.3134" stroke="currentColor"/>
<path d="M20 1H26.5L27 4H20" stroke="currentColor"/>
<path d="M24 14C25.2696 26.1819 26.193 31.6496 28.5 39M16 14C14.7304 26.1819 13.807 31.6496 11.5 39" stroke="currentColor" stroke-linecap="round"/>
<path d="M24 14C25.2696 26.1819 26.193 31.6496 28.5 39M16 14C14.7304 26.1819 13.807 31.6496 11.5 39" stroke="currentColor" stroke-linecap="round"/>
<path d="M24 14C25.2696 26.1819 26.193 31.6496 28.5 39M16 14C14.7304 26.1819 13.807 31.6496 11.5 39" stroke="currentColor" stroke-linecap="round"/>
</svg>
