<svg width="40" height="40" viewBox="0 0 40 40" fill="none" xmlns="http://www.w3.org/2000/svg">
<path d="M6.97143 24.8605L17.8686 29.9956C19.2184 30.6317 20.7816 30.6317 22.1314 29.9956L33.0286 24.8605M6.97143 24.8605L2.56992 20.2973C1.90715 19.6102 1.51198 18.7087 1.4558 17.7557L1.29643 15.052C1.14489 12.4812 3.4268 10.4391 5.96508 10.8741L6.97143 11.0465M6.97143 24.8605C7.70368 20.1504 7.31876 17.2 6.97143 12.0698M6.97143 12.0698L19.217 11.108C19.7382 11.0671 20.2618 11.0671 20.783 11.108L33.0286 12.0698M6.97143 12.0698V11.0465M9.14286 17.6977L20 15.6512L30.8571 17.6977M9.14286 21.2791H20H30.8571M11.3143 24.8605L20 25.8837L28.6857 24.8605M33.0286 24.8605L37.4301 20.2973C38.0929 19.6102 38.488 18.7087 38.5442 17.7557L38.7036 15.052C38.8551 12.4812 36.5732 10.4391 34.0349 10.8741L33.0286 11.0465M33.0286 24.8605C32.2796 21.5837 32.4491 18.394 33.0286 12.0698M33.0286 12.0698V11.0465M6.97143 11.0465V10.0233L19.217 9.06149C19.7382 9.02056 20.2618 9.02056 20.783 9.06149L33.0286 10.0233V11.0465" stroke="currentColor" stroke-linecap="round"/>
</svg>
