<svg width="40" height="40" viewBox="0 0 40 40" fill="none" xmlns="http://www.w3.org/2000/svg">
<path d="M32.6672 2.94872V1M32.6672 11.7179V13.6667M37.0519 7.33333H39.0006M28.2826 7.33333H26.3339M29.257 3.92308L27.7954 2.46154M36.0775 3.92308L37.5391 2.46154M36.0775 10.7436L37.5391 12.2051M29.257 10.7436L27.7954 12.2051M12.232 18.281V14.758C12.232 14.2821 12.6178 13.8963 13.0937 13.8963C13.5696 13.8963 13.9553 14.2821 13.9553 14.758V18.281M12.232 18.281V21.049C12.232 21.3176 12.1695 21.5826 12.0494 21.8229L11.9113 22.099C11.8019 22.3179 11.7449 22.5593 11.7449 22.804V23.0318C11.7449 23.7767 12.3488 24.3806 13.0937 24.3806C13.8386 24.3806 14.4425 23.7767 14.4425 23.0318V22.804C14.4425 22.5593 14.3855 22.3179 14.2761 22.099L14.138 21.8229C14.0179 21.5826 13.9553 21.3176 13.9553 21.049V18.281M12.232 18.281H13.9553M12.2684 35.5H13.7299V33.9332H12.2684V35.5ZM12.981 9.51173L4.69806 25.5887H21.2622L12.981 9.51173ZM35.5903 7.33333C35.5903 5.71897 34.2816 4.41026 32.6672 4.41026C31.0529 4.41026 29.7442 5.71897 29.7442 7.33333C29.7442 8.9477 31.0529 10.2564 32.6672 10.2564C34.2816 10.2564 35.5903 8.9477 35.5903 7.33333Z" stroke="currentColor" stroke-linecap="square"/>
<rect x="2" y="2" width="22" height="36" stroke="currentColor" stroke-width="2"/>
<path d="M11.9113 22.099C11.8019 22.3179 11.7449 22.5593 11.7449 22.804V23.0318C11.7449 23.7767 12.3488 24.3806 13.0937 24.3806C13.8386 24.3806 14.4425 23.7767 14.4425 23.0318V22.804C14.4425 22.5593 14.3855 22.3179 14.2761 22.099L14.138 21.8229C14.0179 21.5826 13.9553 21.3176 13.9553 21.049V18.281H12.232V21.049C12.232 21.3176 12.1695 21.5826 12.0494 21.8229L11.9113 22.099Z" fill="currentColor"/>
<path d="M12.2684 35.5H13.7299V33.9332H12.2684V35.5Z" fill="currentColor" />
</svg>
