<svg width="40" height="40" viewBox="0 0 40 40" fill="none" xmlns="http://www.w3.org/2000/svg">
<path d="M9.3125 12.375H20H30.6875M9.3125 12.375V19.7969M9.3125 12.375L5.15625 11.1875M9.3125 27.2188H20H30.6875M9.3125 27.2188V19.7969M9.3125 27.2188L5.15625 28.1094M9.3125 19.7969L1 19.5M1 19.5V10L5.15625 11.1875M1 19.5V29L5.15625 28.1094M5.15625 28.1094V11.1875M30.6875 12.375V19.7969M30.6875 12.375L34.8438 11.1875M30.6875 27.2188V19.7969M30.6875 27.2188L34.8438 28.1094M30.6875 19.7969L34.8438 19.6484M39 19.5V10L34.8438 11.1875M39 19.5V29L34.8438 28.1094M39 19.5L34.8438 19.6484M34.8438 19.6484V28.1094M34.8438 19.6484V11.1875M9 15.5V17M9 23V24.5M31 15.5V17M31 23V24.5" stroke="currentColor"/>
</svg>
