<svg width="40" height="40" viewBox="0 0 40 40" fill="none" xmlns="http://www.w3.org/2000/svg">
<path d="M15.1741 4H13.2149C11.5533 4 9.94595 4.59102 8.68018 5.66739L8.06242 6.19271C6.81948 7.24967 5.98479 8.70761 5.70259 10.3146L1.17407 36.1026L6.13923 37L9.96004 16.7604V39H20.1741" stroke="currentColor"/>
<path d="M15.1741 4C16.5512 4.64265 17.8992 5.24958 19.5816 5.80932C19.9661 5.93725 20.3821 5.93725 20.7666 5.80932C22.449 5.24958 23.797 4.64265 25.1741 4" stroke="currentColor"/>
<path d="M15.1741 4V2.26019C15.1741 1.61611 15.7737 1.1412 16.4024 1.28131C17.4587 1.51675 18.5605 1.74092 19.8665 1.95131C20.0701 1.9841 20.2781 1.9841 20.4816 1.95131C21.7877 1.74092 22.8894 1.51675 23.9458 1.28131C24.5744 1.1412 25.1741 1.61611 25.1741 2.26019V4" stroke="currentColor"/>
<path d="M1.52116 36.1954L1.30141 37.2189C1.18382 37.7665 1.53889 38.3039 2.08874 38.4105L4.33783 38.8467C4.87238 38.9503 5.39162 38.6073 5.50593 38.0749L5.73407 37.0124" stroke="currentColor"/>
<path d="M38.827 36.1954L39.0467 37.2189C39.1643 37.7665 38.8093 38.3039 38.2594 38.4105L36.0103 38.8467C35.4758 38.9503 34.9565 38.6073 34.8422 38.0749L34.6141 37.0124" stroke="currentColor"/>
<circle cx="32" cy="9" r="7.5" stroke="currentColor"/>
<path fill-rule="evenodd" clip-rule="evenodd" d="M36.1262 15.8552C35.828 16.035 35.5172 16.196 35.1954 16.3364L38.5956 35.699L34.6082 36.4197L30.9287 16.9289C30.6149 16.8869 30.3069 16.8267 30.0057 16.7494L29.8881 16.7604V38.5H20.1741V39.5H30.3881H30.8881V39V22.1044L33.7176 37.0928L33.8096 37.5803L34.2978 37.492L39.263 36.5946L39.7526 36.5061L39.6665 36.0161L36.1262 15.8552ZM26.1905 3.5H25.1741V4.5H25.3847C25.6265 4.14516 25.8962 3.81078 26.1905 3.5Z" fill="currentColor"/>
<path d="M29.3075 7.18182L30.0085 8.51669L30.7269 7.18182H31.8132L30.707 9.09091L31.843 11H30.7617L30.0085 9.68004L29.2678 11H28.174L29.3075 9.09091L28.2138 7.18182H29.3075ZM34.3139 11.0696C33.9427 11.0696 33.6121 11.0058 33.3221 10.8782C33.0337 10.7489 32.8059 10.5716 32.6385 10.3462C32.4728 10.1192 32.3874 9.85736 32.3825 9.56072H33.4663C33.4729 9.68501 33.5135 9.79439 33.5881 9.88885C33.6643 9.98165 33.7654 10.0537 33.8913 10.1051C34.0173 10.1565 34.159 10.1822 34.3164 10.1822C34.4805 10.1822 34.6255 10.1532 34.7514 10.0952C34.8774 10.0372 34.976 9.95679 35.0472 9.85405C35.1185 9.7513 35.1541 9.63281 35.1541 9.49858C35.1541 9.36269 35.116 9.24254 35.0398 9.13814C34.9652 9.03208 34.8575 8.94922 34.7166 8.88956C34.5774 8.8299 34.4117 8.80007 34.2195 8.80007H33.7447V8.00959H34.2195C34.3819 8.00959 34.5252 7.98142 34.6495 7.92507C34.7754 7.86873 34.8732 7.79084 34.9428 7.69141C35.0124 7.59032 35.0472 7.47266 35.0472 7.33842C35.0472 7.21082 35.0166 7.09896 34.9553 7.00284C34.8956 6.90507 34.8111 6.82884 34.7017 6.77415C34.594 6.71946 34.468 6.69212 34.3239 6.69212C34.178 6.69212 34.0446 6.71863 33.9237 6.77166C33.8027 6.82303 33.7057 6.89678 33.6328 6.9929C33.5599 7.08901 33.521 7.2017 33.516 7.33097H32.4844C32.4893 7.03764 32.573 6.77912 32.7354 6.5554C32.8978 6.33168 33.1166 6.15684 33.3917 6.03089C33.6684 5.90329 33.9808 5.83949 34.3288 5.83949C34.6802 5.83949 34.9876 5.90329 35.2511 6.03089C35.5146 6.1585 35.7192 6.33085 35.8651 6.54794C36.0125 6.76338 36.0855 7.00533 36.0838 7.27379C36.0855 7.55883 35.9968 7.79664 35.8178 7.98722C35.6405 8.17779 35.4093 8.29877 35.1243 8.35014V8.38991C35.4988 8.43797 35.7839 8.56806 35.9794 8.78018C36.1766 8.99065 36.2744 9.25414 36.2727 9.57067C36.2744 9.86068 36.1907 10.1184 36.0217 10.3438C35.8543 10.5691 35.6231 10.7464 35.3281 10.8757C35.0331 11.005 34.6951 11.0696 34.3139 11.0696Z" fill="currentColor"/>
</svg>
