<svg width="40" height="40" viewBox="0 0 40 40" fill="none" xmlns="http://www.w3.org/2000/svg">
  <path d="M15 4H13.0408C11.3792 4 9.77188 4.59102 8.50611 5.66739L7.88835 6.19271C6.6454 7.24967 5.81071 8.70761 5.52852 10.3146L1 36.1026L5.96516 37L9.78596 16.7604V39H20 M15 4C16.3771 4.64265 17.7251 5.24958 19.4075 5.80932C19.792 5.93725 20.208 5.93725 20.5925 5.80932C22.2749 5.24958 23.6229 4.64265 25 4 M15 4V2.26019C15 1.61611 15.5997 1.1412 16.2283 1.28131C17.2847 1.51675 18.3864 1.74092 19.6924 1.95131C19.896 1.9841 20.104 1.9841 20.3076 1.95131C21.6136 1.74092 22.7153 1.51675 23.7717 1.28131C24.4003 1.1412 25 1.61611 25 2.26019V4 M1.34709 36.1954L1.12734 37.2189C1.00975 37.7665 1.36482 38.3039 1.91467 38.4105L4.16376 38.8467C4.69831 38.9503 5.21755 38.6073 5.33186 38.0749L5.55999 37.0124 M25 4H26.9592C28.6208 4 30.2281 4.59102 31.4939 5.66739L32.1116 6.19271C33.3546 7.24967 34.1893 8.70761 34.4715 10.3146L39 36.1026L34.0348 37L30.214 16.7604V39H20 M38.6529 36.1954L38.8727 37.2189C38.9902 37.7665 38.6352 38.3039 38.0853 38.4105L35.8362 38.8467C35.3017 38.9503 34.7825 38.6073 34.6681 38.0749L34.44 37.0124" stroke="currentColor" />
</svg>
