<svg width="40" height="40" viewBox="0 0 40 40" fill="none" xmlns="http://www.w3.org/2000/svg">
<path d="M15.1741 4H13.2149C11.5533 4 9.94595 4.59102 8.68018 5.66739L8.06242 6.19271C6.81948 7.24967 5.98479 8.70761 5.70259 10.3146L1.17407 36.1026L6.13923 37L9.96004 16.7604V39H20.1741" stroke="currentColor"/>
<path d="M15.1741 4C16.5512 4.64265 17.8992 5.24958 19.5816 5.80932C19.9661 5.93725 20.3821 5.93725 20.7666 5.80932C22.449 5.24958 23.797 4.64265 25.1741 4" stroke="currentColor"/>
<path d="M15.1741 4V2.26019C15.1741 1.61611 15.7737 1.1412 16.4024 1.28131C17.4587 1.51675 18.5605 1.74092 19.8665 1.95131C20.0701 1.9841 20.2781 1.9841 20.4816 1.95131C21.7877 1.74092 22.8894 1.51675 23.9458 1.28131C24.5744 1.1412 25.1741 1.61611 25.1741 2.26019V4" stroke="currentColor"/>
<path d="M1.52116 36.1954L1.30141 37.2189C1.18382 37.7665 1.53889 38.3039 2.08874 38.4105L4.33783 38.8467C4.87238 38.9503 5.39162 38.6073 5.50593 38.0749L5.73407 37.0124" stroke="currentColor"/>
<path d="M38.827 36.1954L39.0467 37.2189C39.1643 37.7665 38.8093 38.3039 38.2594 38.4105L36.0103 38.8467C35.4758 38.9503 34.9565 38.6073 34.8422 38.0749L34.6141 37.0124" stroke="currentColor"/>
<path fill-rule="evenodd" clip-rule="evenodd" d="M36.1262 15.8552C35.828 16.035 35.5172 16.196 35.1954 16.3364L38.5956 35.699L34.6082 36.4197L30.9287 16.9289C30.6149 16.8869 30.3069 16.8267 30.0057 16.7494L29.8881 16.7604V38.5H20.1741V39.5H30.3881H30.8881V39V22.1044L33.7176 37.0928L33.8096 37.5803L34.2978 37.492L39.263 36.5946L39.7526 36.5061L39.6665 36.0161L36.1262 15.8552ZM26.1905 3.5H25.1741V4.5H25.3847C25.6265 4.14516 25.8962 3.81078 26.1905 3.5Z" fill="currentColor"/>
<circle cx="32" cy="9" r="7.5" stroke="currentColor"/>
<path d="M29.3075 7.18182L30.0085 8.51669L30.7269 7.18182H31.8132L30.707 9.09091L31.843 11H30.7617L30.0085 9.68004L29.2678 11H28.174L29.3075 9.09091L28.2138 7.18182H29.3075ZM32.4322 11V10.2244L34.2443 8.54652C34.3984 8.39737 34.5277 8.26314 34.6321 8.14382C34.7382 8.0245 34.8185 7.90767 34.8732 7.79332C34.9279 7.67732 34.9553 7.5522 34.9553 7.41797C34.9553 7.26882 34.9213 7.14039 34.8533 7.03267C34.7854 6.9233 34.6926 6.83961 34.5749 6.7816C34.4573 6.72195 34.3239 6.69212 34.1747 6.69212C34.0189 6.69212 33.883 6.7236 33.767 6.78658C33.651 6.84955 33.5616 6.93987 33.4986 7.05753C33.4356 7.17519 33.4041 7.31522 33.4041 7.47763H32.3825C32.3825 7.14453 32.4579 6.85535 32.6087 6.61009C32.7595 6.36482 32.9708 6.17507 33.2425 6.04084C33.5143 5.9066 33.8275 5.83949 34.1822 5.83949C34.5468 5.83949 34.8641 5.90412 35.1342 6.03338C35.406 6.16098 35.6173 6.3383 35.7681 6.56534C35.9189 6.79238 35.9943 7.05256 35.9943 7.34588C35.9943 7.53812 35.9562 7.72786 35.88 7.91513C35.8054 8.10239 35.672 8.31037 35.4798 8.53906C35.2875 8.7661 35.0166 9.03871 34.6669 9.35689L33.9237 10.0852V10.12H36.0614V11H32.4322Z" fill="currentColor"/>
</svg>
