<svg width="40" height="40" viewBox="0 0 40 40" fill="none" xmlns="http://www.w3.org/2000/svg">
<path d="M5 33H4V36H35.5V33H35M5 33C4.29111 25.7226 5.42552 23.5183 5 21H6.5C8.50844 22.5925 9.61691 23.413 11.5 24.5C13.9077 25.0685 14.8161 25.0018 16 24.5C17.5788 23.4579 18.2495 22.7021 19 21C20.4104 22.1269 21.7878 23.1285 23 23.9104M5 33H35M26 25.5C27.5 26.1891 29.4375 27 29.4375 27M26 25.5L24 27.5M26 25.5C24.5 24.8109 24.2077 24.6895 23 23.9104M29.4375 27C29.4375 27 31.875 27.3834 32.9375 27.9417C34 28.5 35.4528 29.6033 35 33M29.4375 27L27.5 29M23 23.9104L20.5 26" stroke="currentColor"/>
</svg>
