<svg width="40" height="40" viewBox="0 0 40 40" fill="none" xmlns="http://www.w3.org/2000/svg">
<path d="M15.5266 3C15.5266 3 16.9697 10.383 17.0177 16.5C17.0657 22.617 17.6616 36.7765 18.0118 38.9999C14.2498 38.6793 12.4463 38.8761 10.0591 38 M12.5443 0.5L11.5502 3L13.5384 7L15.5266 3.5L12.5443 0.5ZM12.5443 0.5H20 M24.4734 3C24.4734 3 23.0303 10.383 22.9823 16.5C22.9343 22.617 22.3384 36.7765 21.9882 38.9999C25.7502 38.6793 27.5537 38.8761 29.9409 38 M27.4557 0.5L28.4498 3L26.4616 7L24.4734 3.5L27.4557 0.5ZM27.4557 0.5H20 M18.0118 34.5C19.6756 34.1626 20.6493 34.1361 22.4858 34.5" stroke="currentColor"/>
<path fill-rule="evenodd" clip-rule="evenodd" d="M11.859 3.62128C10.7666 3.83533 9.74015 4.32792 8.88359 5.06064L8.34633 5.52022C7.16396 6.53165 6.38234 7.93479 6.1571 9.47116C5.95754 10.8324 5.77349 12.1333 5.59604 13.3875L5.59601 13.3877C4.5367 20.875 3.7128 26.6984 1.22956 33.7641L6.72088 36.7385C8.47788 28.0376 9.16644 23.8107 9.34653 15.7493L10.3464 15.7604V38.466H9.3464V28.0277C8.92094 30.8021 8.34185 33.7779 7.56694 37.5994L7.4327 38.2614L6.83877 37.9396L0.377197 34.4396L0 34.2353L0.144599 33.8315C2.70348 26.6844 3.52402 20.8881 4.60413 13.2583C4.78197 12.002 4.96685 10.696 5.16768 9.32611C5.42845 7.54738 6.33259 5.92686 7.6963 4.76031L8.23355 4.30073C9.22943 3.44884 10.4244 2.87826 11.6956 2.63433L11.5502 3L11.859 3.62128ZM15.5266 3.5H20.0001V2.5H14.5325L15.5266 3.5Z" fill="currentColor"/>
<path fill-rule="evenodd" clip-rule="evenodd" d="M28.141 3.62128C29.2334 3.83533 30.2599 4.32792 31.1164 5.06064L31.6537 5.52022C32.836 6.53165 33.6177 7.93479 33.8429 9.47116C34.0425 10.8324 34.2265 12.1333 34.404 13.3875L34.404 13.3877C35.4633 20.875 36.2872 26.6984 38.7704 33.7641L33.2791 36.7385C31.5221 28.0376 30.8336 23.8107 30.6535 15.7493L29.6536 15.7604V38.466H30.6536V28.0277C31.0791 30.8021 31.6582 33.7779 32.4331 37.5994L32.5673 38.2614L33.1612 37.9396L39.6228 34.4396L40 34.2353L39.8554 33.8315C37.2965 26.6844 36.476 20.8881 35.3959 13.2583C35.218 12.002 35.0332 10.696 34.8323 9.32611C34.5716 7.54738 33.6674 5.92686 32.3037 4.76031L31.7664 4.30073C30.7706 3.44884 29.5756 2.87826 28.3044 2.63433L28.4498 3L28.141 3.62128ZM24.4734 3.5H19.9999V2.5H25.4675L24.4734 3.5Z" fill="currentColor"/>
</svg>
