<svg width="40" height="40" viewBox="0 0 40 40" fill="none" xmlns="http://www.w3.org/2000/svg">
  <path d="M16.8097 25.3961H7.82816C6.86459 25.3961 6.03945 24.71 5.901 23.7564C5.67205 22.1796 5.38853 19.7563 5.46232 17.8167L3 16.2914V14L6.16575 15.0198C7.77529 13.3004 17.6933 15.5659 18.2174 16.6582H20.5H22.7826C23.3067 15.5659 33.2247 13.3004 34.8343 15.0198L38 14V16.2914L35.5377 17.8167C35.6115 19.7563 35.3279 22.1796 35.099 23.7564C34.9605 24.71 34.1354 25.3961 33.1718 25.3961H24.1903C23.3459 25.3961 22.5917 24.8627 22.4521 24.0299C22.1264 22.0877 22 19 20.5 19C19.2817 19 19.0256 21.8553 18.5752 24.0357C18.4044 24.8627 17.6541 25.3961 16.8097 25.3961Z" stroke="currentColor" />
  <path d="M7.21735 22.1835C6.94035 20.2764 6.65851 17.2557 7.48957 16.4397C8.73077 15.2208 16.379 16.8268 16.7832 17.601C17.0309 18.0755 16.975 20.2955 16.8945 21.9427C16.8435 22.9884 15.9737 23.7947 14.9268 23.7947H9.12553C8.17381 23.7947 7.35414 23.1254 7.21735 22.1835Z" fill="currentColor" />
  <path d="M33.5635 22.1835C33.8405 20.2764 34.1224 17.2557 33.2913 16.4397C32.0501 15.2208 24.4019 16.8268 23.9977 17.601C23.7499 18.0755 23.8059 20.2955 23.8864 21.9427C23.9374 22.9884 24.8072 23.7947 25.8541 23.7947H31.6554C32.6071 23.7947 33.4267 23.1254 33.5635 22.1835Z" fill="currentColor" />
</svg>
