<svg width="40" height="40" viewBox="0 0 40 40" fill="none" xmlns="http://www.w3.org/2000/svg">
<path d="M26 17L15.5 25.0769M26 17L20.6375 28M26 17L31.3625 28M26 17L37 25.5M20 29.3077C16.035 29.3958 15.1172 28.325 14 26.2308L15.5 25.0769M20 29.3077C22 30.5 24.1863 31.0036 26 31M20 29.3077L20.6375 28M32 29.3077C36 30 37.7687 28.7873 38 26.2308L37 25.5M32 29.3077C29.5 30.5 27.8441 30.9963 26 31M32 29.3077L31.3625 28M26 31V35.5C26 36.3284 26.6716 37 27.5 37V37C28.3284 37 29 36.3284 29 35.5V34.6923M15.5 25.0769C15.5917 25.8846 16.7475 27.6 20.6375 28M20.6375 28C22.5651 29.0244 27.4088 30.4587 31.3625 28M31.3625 28C33.0984 28.1205 36.428 27.6446 37 25.5" stroke="currentColor"/>
<path d="M9.00166 10.3652V11.8652C12.5848 12.6596 14.5518 12.6339 18.0017 11.8652V10.3652M9.00166 10.3652C12.5848 11.0308 14.5518 11.0093 18.0017 10.3652M9.00166 10.3652C9.00166 10.3652 8.95749 9.9278 9.00166 9.30435M18.0017 10.3652C18.0017 10.3652 17.997 9.95167 17.896 9.30435M9.00166 9.30435C9.02501 8.9748 9.13097 8.24945 9.25168 7.48643C9.4794 6.04696 10.73 5 12.1873 5H14.4626C15.774 5 16.9364 5.85092 17.3083 7.10851C17.5778 8.01987 17.8418 8.95686 17.896 9.30435M9.00166 9.30435C9.00166 9.30435 4.16669 10 2.66668 10.3652C2.06215 10.5124 1.94489 11.2937 2.02032 12.1742C2.16821 13.9001 3.83106 14.9728 5.5627 14.9267C11.4473 14.77 24.2817 14.385 24.6667 14C24.7191 13.9476 24.7605 13.8545 24.7927 13.73C25.4259 11.2779 22.7597 9.30435 20.2272 9.30435H17.896" stroke="currentColor"/>
</svg>
