<svg width="40" height="40" viewBox="0 0 40 40" fill="none" xmlns="http://www.w3.org/2000/svg">
<path d="M16.6129 7.76278C16.5902 7.53362 16.4927 7.35559 16.3203 7.22869C16.148 7.1018 15.9141 7.03835 15.6186 7.03835C15.4178 7.03835 15.2483 7.06676 15.1101 7.12358C14.9718 7.1785 14.8658 7.25521 14.7919 7.35369C14.7199 7.45218 14.6839 7.56392 14.6839 7.68892C14.6801 7.79309 14.7019 7.88399 14.7493 7.96165C14.7985 8.0393 14.8658 8.10653 14.951 8.16335C15.0362 8.21827 15.1347 8.26657 15.2464 8.30824C15.3582 8.34801 15.4775 8.3821 15.6044 8.41051L16.1271 8.53551C16.3809 8.59233 16.6139 8.66809 16.826 8.76278C17.0381 8.85748 17.2218 8.97396 17.3771 9.11221C17.5324 9.25047 17.6527 9.41335 17.7379 9.60085C17.825 9.78835 17.8695 10.0033 17.8714 10.2457C17.8695 10.6018 17.7786 10.9105 17.5987 11.1719C17.4207 11.4313 17.1631 11.633 16.826 11.777C16.4908 11.919 16.0864 11.9901 15.6129 11.9901C15.1432 11.9901 14.7341 11.9181 14.3856 11.7741C14.0391 11.6302 13.7682 11.4171 13.5731 11.1349C13.38 10.8509 13.2786 10.4995 13.2692 10.081H14.4595C14.4728 10.276 14.5286 10.4389 14.6271 10.5696C14.7275 10.6984 14.861 10.7959 15.0277 10.8622C15.1962 10.9266 15.3866 10.9588 15.5987 10.9588C15.807 10.9588 15.9879 10.9285 16.1413 10.8679C16.2966 10.8073 16.4169 10.723 16.5021 10.6151C16.5873 10.5071 16.63 10.383 16.63 10.2429C16.63 10.1122 16.5911 10.0024 16.5135 9.91335C16.4377 9.82434 16.326 9.74858 16.1783 9.68608C16.0324 9.62358 15.8534 9.56676 15.6413 9.51562L15.0078 9.35653C14.5173 9.23721 14.13 9.05066 13.8459 8.79687C13.5618 8.54309 13.4207 8.20123 13.4226 7.7713C13.4207 7.41903 13.5144 7.11127 13.7038 6.84801C13.8951 6.58475 14.1574 6.37926 14.4908 6.23153C14.8241 6.0838 15.2029 6.00994 15.6271 6.00994C16.0589 6.00994 16.4358 6.0838 16.7578 6.23153C17.0817 6.37926 17.3336 6.58475 17.5135 6.84801C17.6934 7.11127 17.7862 7.41619 17.7919 7.76278H16.6129Z" fill="currentColor"/>
<path d="M18.6989 11.9077V6.08949H20.9943C21.4356 6.08949 21.8115 6.17377 22.1221 6.34233C22.4328 6.50899 22.6695 6.741 22.8324 7.03835C22.9971 7.3338 23.0795 7.67471 23.0795 8.06108C23.0795 8.44744 22.9962 8.78835 22.8295 9.0838C22.6629 9.37926 22.4214 9.60937 22.1051 9.77415C21.7907 9.93892 21.41 10.0213 20.9631 10.0213H19.5V9.03551H20.7642C21.0009 9.03551 21.196 8.99479 21.3494 8.91335C21.5047 8.83002 21.6203 8.71543 21.696 8.5696C21.7737 8.42187 21.8125 8.25237 21.8125 8.06108C21.8125 7.8679 21.7737 7.69933 21.696 7.5554C21.6203 7.40956 21.5047 7.29687 21.3494 7.21733C21.1941 7.13589 20.9971 7.09517 20.7585 7.09517H19.929V11.9077H18.6989Z" fill="currentColor"/>
<path d="M23.8785 11.9077V6.08949H27.7308V7.10369H25.1087V8.49005H27.4751V9.50426H25.1087V11.9077H23.8785Z" fill="currentColor"/>
<path d="M32 3.375V1H20.5H9V3.375M32 3.375L28.7487 32.4721C28.6355 33.4844 27.7797 34.25 26.761 34.25H20.5H14.239C13.2203 34.25 12.3645 33.4844 12.2513 32.4721L9 3.375M32 3.375H9M27.4 34.25V38C27.4 38.5523 26.9523 39 26.4 39H20.5H14.6C14.0477 39 13.6 38.5523 13.6 38V34.25M19.35 22.375V22.2813C19.35 20.6934 20.6372 19.4062 22.225 19.4062V19.4062C23.8128 19.4062 25.1 20.6934 25.1 22.2812V22.4687C25.1 24.0566 23.8128 25.3438 22.225 25.3438V25.3438M22.225 17.625V15.25M25.675 18.8125L27.4 17.0312M25.675 25.9375L27.4 27.7188M18.775 18.8125L17.05 17.0312M22.225 29.5V27.125M26.825 22.375H29.125M18.2 21.7812L14.175 22.9688V25.2824C14.175 27.1879 15.0801 28.9801 16.6135 30.1111L18.2 31.2812L19.7865 30.1111C21.3199 28.9801 22.225 27.1879 22.225 25.2824V22.9688L18.2 21.7812Z" stroke="currentColor"/>
</svg>
