<svg width="40" height="40" viewBox="0 0 40 40" fill="none" xmlns="http://www.w3.org/2000/svg">
<path d="M31.5093 39L26.112 38.1212L26.6165 25.5985L26.112 33.7273L24 33.1865L24.9168 21.1898C24.9662 20.5437 25.0895 19.8976 25.4184 19.3392C25.8027 18.6869 26.432 17.9091 27.248 17.9091H28.2857M31.5093 39V27.5758V21.4242M31.5093 39L36.888 38.1212L36.3835 25.5985L36.888 33.7273L39 33.1865L38.0889 21.2643C38.0357 20.5688 37.9049 19.8711 37.5433 19.2751C37.1561 18.6371 36.5415 17.9091 35.752 17.9091H34.7143M31.5093 21.4242L29.8929 17.9091C29.7133 17.4209 26.9786 11.6111 31.2306 11.6111C35.4826 11.6111 33.2867 17.4209 33.1071 17.9091L31.5093 21.4242ZM31.5093 21.4242L28.2857 17.9091M31.5093 21.4242L34.7143 17.9091M29.6235 32.8485L27.7284 32.5556M33.6552 32.8485L35.2716 32.5556M28.2857 17.9091C26.8561 15.2727 25.4437 10 31.2306 10C37.0175 10 35.9643 15.2727 34.7143 17.9091" stroke="currentColor"/>
<path d="M13.6139 0.795366L1.61389 10.0261C4.79389 9.9637 6.14441 10.5818 7.61389 13.1031M13.6139 0.795366L7.61389 13.1031M13.6139 0.795366L25.6139 10.0261C22.6564 10.0327 21.3865 10.7923 19.6139 13.1031M13.6139 0.795366L19.6139 13.1031M7.61389 13.1031C9.9674 11.5844 11.8002 10.8363 13.6139 10.8326M19.6139 13.1031C17.2823 11.5949 15.458 10.8289 13.6139 10.8326M13.6139 10.8326V19.2954C13.6139 20.1238 14.2855 20.7954 15.1139 20.7954V20.7954C15.9423 20.7954 16.6139 20.1238 16.6139 19.2954V18.4877" stroke="currentColor"/>
</svg>
