<svg width="40" height="40" viewBox="0 0 40 40" fill="none" xmlns="http://www.w3.org/2000/svg">
<path d="M16 4.03333H16.5V3.03333H16V4.03333ZM24.2389 6.97433L24.7224 6.84709L24.7224 6.84709L24.2389 6.97433ZM25.4029 11.3975L24.9193 11.5247L24.9193 11.5247L25.4029 11.3975ZM20.5 37.1V36.6H19.5V37.1H20.5ZM23.5 37.1V36.6H22.5V37.1H23.5ZM17.5 37.1V36.6H16.5V37.1H17.5ZM20 18.1L20.4425 17.8671L20 17.0265L19.5575 17.8671L20 18.1ZM18.6667 20.6333L19.0815 20.9125L19.0966 20.8901L19.1091 20.8662L18.6667 20.6333ZM21.3333 20.6333L20.8909 20.8662L20.9034 20.8901L20.9185 20.9125L21.3333 20.6333ZM20.4093 22.1872L20.6965 21.7779L19.8779 21.2035L19.5907 21.6128L20.4093 22.1872ZM18.2574 23.5128C18.0988 23.7388 18.1534 24.0507 18.3795 24.2093C18.6055 24.3679 18.9173 24.3133 19.0759 24.0872L18.2574 23.5128ZM15.8024 6.81737L15.3189 6.69012L15.8024 6.81737ZM17.1626 22.8686L16.7478 22.5895L17.1626 22.8686ZM16 3.53333H16.5V3.03333H16V3.53333ZM22.8374 22.8686L22.4226 23.1477L22.8374 22.8686ZM14.4939 11.7899L14.0103 11.6627L14.4939 11.7899ZM20 0.5H16.3333V1.5H20V0.5ZM14.8333 2V2.86667H15.8333V2H14.8333ZM16 4.03333H20V3.03333H16V4.03333ZM15.5 3.53333V5.29041H16.5V3.53333H15.5ZM15.3189 6.69012L14.0103 11.6627L14.9774 11.9172L16.286 6.94461L15.3189 6.69012ZM13.5 15.6073V37H14.5V15.6073H13.5ZM20 1.5H23.3333V0.5H20V1.5ZM24.1667 2.26667V2.9H25.1667V2.26667H24.1667ZM24 3.03333H20V4.03333H24V3.03333ZM23.5 3.53333V5.13106H24.5V3.53333H23.5ZM23.7553 7.10158L24.9193 11.5247L25.8864 11.2703L24.7224 6.84709L23.7553 7.10158ZM25.5 16.0057V37H26.5V16.0057H25.5ZM23.5 5.13106C23.5 5.79554 23.5858 6.45735 23.7553 7.10158L24.7224 6.84709C24.5747 6.28565 24.5 5.70937 24.5 5.13106H23.5ZM24.1667 2.9C24.1667 2.94978 24.1165 3.03333 24 3.03333V4.03333C24.6199 4.03333 25.1667 3.54978 25.1667 2.9H24.1667ZM24.9193 11.5247C25.305 12.9904 25.5 14.4953 25.5 16.0057H26.5C26.5 14.4091 26.2939 12.8187 25.8864 11.2703L24.9193 11.5247ZM23.3333 1.5C23.818 1.5 24.1667 1.86711 24.1667 2.26667H25.1667C25.1667 1.26711 24.3214 0.5 23.3333 0.5V1.5ZM20.5 39V37.1H19.5V39H20.5ZM24 38.5H23V39.5H24V38.5ZM23 38.5H20V39.5H23V38.5ZM23.5 39V37.1H22.5V39H23.5ZM16 39.5H17V38.5H16V39.5ZM17 39.5H20V38.5H17V39.5ZM17.5 39V37.1H16.5V39H17.5ZM19.5783 27.9057H20V26.9057H19.5783V27.9057ZM19.5575 17.8671L18.2242 20.4005L19.1091 20.8662L20.4425 18.3329L19.5575 17.8671ZM18.2518 20.3542L16.7478 22.5895L17.5774 23.1477L19.0815 20.9125L18.2518 20.3542ZM20.4217 26.9057H20V27.9057H20.4217V26.9057ZM19.5575 18.3329L20.8909 20.8662L21.7758 20.4005L20.4425 17.8671L19.5575 18.3329ZM20.9185 20.9125L22.4226 23.1477L23.2522 22.5895L21.7482 20.3542L20.9185 20.9125ZM19.5907 21.6128L18.2574 23.5128L19.0759 24.0872L20.4093 22.1872L19.5907 21.6128ZM16.1667 24.4941C16.1667 26.3782 17.6941 27.9057 19.5783 27.9057V26.9057C18.2464 26.9057 17.1667 25.826 17.1667 24.4941H16.1667ZM15.5 5.29041C15.5 5.76282 15.4391 6.23326 15.3189 6.69012L16.286 6.94461C16.4281 6.40469 16.5 5.84871 16.5 5.29041H15.5ZM22.8333 24.4941C22.8333 25.826 21.7536 26.9057 20.4217 26.9057V27.9057C22.3059 27.9057 23.8333 26.3782 23.8333 24.4941H22.8333ZM13.5 37C13.5 38.3807 14.6193 39.5 16 39.5V38.5C15.1716 38.5 14.5 37.8284 14.5 37H13.5ZM17.1667 24.4941C17.1667 24.0144 17.3097 23.5457 17.5774 23.1477L16.7478 22.5895C16.369 23.1524 16.1667 23.8155 16.1667 24.4941H17.1667ZM14.8333 2.86667C14.8333 3.511 15.3557 4.03333 16 4.03333V3.03333C15.908 3.03333 15.8333 2.95871 15.8333 2.86667H14.8333ZM23.8333 24.4941C23.8333 23.8155 23.631 23.1524 23.2522 22.5895L22.4226 23.1477C22.6903 23.5457 22.8333 24.0144 22.8333 24.4941H23.8333ZM25.5 37C25.5 37.8284 24.8284 38.5 24 38.5V39.5C25.3807 39.5 26.5 38.3807 26.5 37H25.5ZM14.0103 11.6627C13.6715 12.9502 13.5 14.276 13.5 15.6073H14.5C14.5 14.3619 14.6605 13.1216 14.9774 11.9172L14.0103 11.6627ZM16.3333 0.5C15.5049 0.5 14.8333 1.17157 14.8333 2H15.8333C15.8333 1.72386 16.0572 1.5 16.3333 1.5V0.5Z" fill="currentColor"/>
</svg>
