<svg width="40" height="40" viewBox="0 0 40 40" fill="none" xmlns="http://www.w3.org/2000/svg">
<path d="M15.1741 3.95464H13.1895C11.5433 3.95464 9.94983 4.5348 8.68899 5.59317L8.08547 6.09978C6.82812 7.15522 5.9817 8.61899 5.69418 10.2352L1.17407 35.6439L6.13923 36.5297L9.96004 16.5508V38.504H20.1741 M15.1741 3.95464C16.5532 4.58945 17.9031 5.18892 19.5889 5.74169C19.9689 5.86631 20.3792 5.86631 20.7593 5.74169C22.4451 5.18892 23.795 4.58945 25.1741 3.95464 M15.1741 3.95463C12.2187 2.47948 14.5 1.48683 15.1741 0.993258C15.8483 0.499691 18.0024 0.492777 20.0001 0.499697C21.9977 0.506618 24.3482 0.499691 25.1741 0.993258C26 1.48683 28.5 2.47394 25.1741 3.95463 M1.52116 35.7355L1.30534 36.7277C1.18581 37.2772 1.54298 37.8176 2.09557 37.9234L4.34298 38.3536C4.87559 38.4556 5.39197 38.1147 5.50718 37.5851L5.73407 36.542 M20 38.504V5.92889 M14 27.6456C14.1667 28.7973 13.8 31.8902 11 35.049 M16 0.993134C18.2497 2.67509 18.8504 3.85399 20 5.92875M7.66983 6.50488C8.69389 7.59037 9.50005 8.39557 10.0254 10.3698M10 16.7861C10.0737 14.4317 10.5507 12.3441 10.0254 10.3698M10.0254 10.3698C11.7306 10.8634 16.4001 11.5544 20.0001 10.3698M10.0254 15.799C11.692 16.4571 16.4001 17.3784 20.0001 15.799M10 21.2282C11.6667 21.8863 16.4001 22.8076 20.0001 21.2282M14.4081 28.0704C15.4081 28.2349 18.0001 28.3355 20.0001 27.1509 M5 14.3182C5.33333 15.3054 6.7 17.2796 9.5 17.2796M4 21.7217C5.16667 22.7088 7 23.6959 8.5 23.2024M2.5 28.6315C3.16667 29.4541 5.1 30.8032 7.5 29.6187 M10 35.0479C13.6105 35.7656 16.5702 35.7688 20 35.0479 M25.1741 3.95464H27.1586C28.8048 3.95464 30.3983 4.5348 31.6592 5.59317L32.2627 6.09978C33.52 7.15522 34.3664 8.61899 34.654 10.2352L39.1741 35.6439L34.2089 36.5297L30.3881 16.5508V38.504H20.1741 M25.1741 3.95464C23.795 4.58945 22.4451 5.18892 20.7593 5.74169C20.3792 5.86631 19.9689 5.86631 19.5889 5.74169C17.9031 5.18892 16.5532 4.58945 15.1741 3.95464 M38.827 35.7355L39.0428 36.7277C39.1623 37.2772 38.8052 37.8176 38.2526 37.9234L36.0052 38.3536C35.4726 38.4556 34.9562 38.1147 34.841 37.5851L34.6141 36.542 M26.3481 27.6456C26.1815 28.7973 26.5481 31.8902 29.3481 35.049 M24.3481 0.993134C22.0985 2.67509 21.4977 3.85399 20.3481 5.92875 M32.6783 6.50488C31.6543 7.59037 30.8481 8.39557 30.3228 10.3698M30.3481 16.7861C30.2744 14.4317 29.7975 12.3441 30.3228 10.3698M30.3228 10.3698C28.6175 10.8634 23.9481 11.5544 20.3481 10.3698M30.3228 15.799C28.6561 16.4571 23.9481 17.3784 20.3481 15.799M30.3481 21.2282C28.6814 21.8863 23.9481 22.8076 20.3481 21.2282M25.94 28.0704C24.94 28.2349 22.3481 28.3355 20.3481 27.1509 M35.3481 14.3182C35.0148 15.3054 33.6481 17.2796 30.8481 17.2796M36.3481 21.7217C35.1815 22.7088 33.3481 23.6959 31.8481 23.2024M37.8481 28.6315C37.1815 29.4541 35.2481 30.8032 32.8481 29.6187 M30.3481 35.0479C26.7376 35.7656 23.7779 35.7688 20.3481 35.0479" stroke="currentColor"/>
</svg>
