<svg width="40" height="40" viewBox="0 0 40 40" fill="none" xmlns="http://www.w3.org/2000/svg">
  <path d="M15 36V36C16.2478 35.3761 17.0964 34.1646 17.2563 32.7787L18.5 22L19 15 M11 38V37C11 36.4477 11.4477 36 12 36H15C15.5523 36 16 36.4477 16 37V38C16 38.5523 15.5523 39 15 39H12C11.4477 39 11 38.5523 11 38Z M14.5935 17.8536L11.0144 18.1075C10.5202 18.1426 10.0928 17.7702 10.0598 17.2759C10.0268 16.7816 10.4006 16.3524 10.8948 16.3173L14.4739 16.0635C14.9681 16.0284 15.3955 16.4007 15.4285 16.8951C15.4615 17.3894 15.0877 17.8186 14.5935 17.8536Z M12 4V4C11.0182 5.30903 10.408 6.85879 10.2337 8.48577L9.21085 18.032C9.07055 19.3415 9.04405 20.6608 9.13166 21.9749L9.85126 32.7689C9.94339 34.1509 10.7611 35.3806 12 36V36 M19 1H12C11.4477 1 11 1.44772 11 2V3C11 3.55228 11.4477 4 12 4H19 M23 36V36C21.7522 35.3761 20.9036 34.1646 20.7437 32.7787L19.5 22L19 15 M27 38V37C27 36.4477 26.5523 36 26 36H23C22.4477 36 22 36.4477 22 37V38C22 38.5523 22.4477 39 23 39H26C26.5523 39 27 38.5523 27 38Z M23.4065 17.8536L26.9856 18.1075C27.4798 18.1426 27.9072 17.7702 27.9402 17.2759C27.9732 16.7816 27.5994 16.3524 27.1052 16.3173L23.5261 16.0635C23.0319 16.0284 22.6045 16.4007 22.5715 16.8951C22.5385 17.3894 22.9123 17.8186 23.4065 17.8536Z M26 4V4C26.9818 5.30903 27.592 6.85879 27.7663 8.48577L28.7891 18.032C28.9295 19.3415 28.9559 20.6608 28.8683 21.9749L28.1487 32.7689C28.0566 34.1509 27.2389 35.3806 26 36V36 M19 1H26C26.5523 1 27 1.44772 27 2V3C27 3.55228 26.5523 4 26 4H19 M24.5031 21.4268L25.9488 19.7851 M22.5223 20.4987L24.5031 21.4268 M25.2167 24.8533L27.1976 25.7814 M23.7711 26.495L25.2167 24.8533 M24.1463 19.7136L25.5735 26.5666 M26.5732 22.7833L28.2149 24.2289 M27.5013 20.8024L26.5732 22.7833 M23.1467 23.4969L22.2185 25.4777 M21.505 22.0512L23.1467 23.4969 M28.2864 22.4265L21.4334 23.8537" stroke="currentColor" />
</svg>
