<svg width="40" height="40" viewBox="0 0 40 40" fill="none" xmlns="http://www.w3.org/2000/svg">
<path d="M5 33.5H4V36.5H35.5V33.5H35M5 33.5C4.77123 31.1514 4.73443 28.9667 4.77523 27M5 33.5H11M35 33.5C35.4528 30.1033 34 29 32.9375 28.4417C32.3353 28.1253 31.2915 27.865 30.5 27.6989M35 33.5H29.4375M17.6868 19.5C17.6316 19.1471 17.5813 18.6244 17.5348 18M17.6868 19.5L13.7117 20.5V19L17.5348 18M17.6868 19.5C17.7559 19.9411 18.0005 20.3927 18.3514 20.8361M4.77523 27C4.83998 23.8784 5.10021 21.3061 5.09851 19.5C5.09812 19.0812 5.08365 14.3021 5.04939 11.5M4.77523 27C6.68349 27.1667 10.6 28.7 11 33.5M11 33.5H29.4375M17.2867 13.5C17.1904 11.5029 17.1025 9.75618 17 9.5C17 9.5 15.527 10.6784 13.7117 11C13.162 11.0974 12.581 11.1162 12 11C10.6235 10.7247 9.09544 10.2978 8 9.96975C7.10589 9.70196 6.5 9.5 6.5 9.5H5C5.01969 9.61654 5.03604 10.4082 5.04939 11.5M17.2867 13.5L13.7117 15V16.5L17.3848 15.5M17.2867 13.5C17.3182 14.1543 17.3506 14.8355 17.3848 15.5M17.3848 15.5C17.431 16.4003 17.4803 17.2698 17.5348 18M18.3514 20.8361L14.5 23L15 24.4104L19 22M18.3514 20.8361C18.969 21.6165 19.9159 22.3716 20.8148 23M20.8148 23L18.3514 26L20.5 26.5L22 23.7846M20.8148 23C21.2329 23.2923 21.6406 23.5573 22 23.7846M22 23.7846C22.4193 24.0498 22.7728 24.2638 23 24.4104C23.4117 24.676 23.717 24.8651 24 25.0264M24 25.0264L23 27.5L24.5 28L25 25.5384M24 25.0264C24.3211 25.2093 24.6135 25.3564 25 25.5384M25 25.5384C25.2723 25.6666 25.5913 25.8123 26 26C27.5 26.6891 29.4375 27.5 29.4375 27.5C29.4375 27.5 29.895 27.572 30.5 27.6989M30.5 27.6989C30.1458 28.7993 29.4375 31.5 29.4375 33.5M5.04939 11.5C10 12.5 13.4 14.3 17 11.5" stroke="currentColor"/>
</svg>
